<svg xmlns="http://www.w3.org/2000/svg" viewBox="0 0 1181.81 537.89"><defs><style>.cls-1{fill:#1a3263;}.cls-2{fill:#f0a500;}</style></defs><g id="Capa_2" data-name="Capa 2"><g id="Capa_5" data-name="Capa 5"><path d="M629.2,221.8q23,0,32.52,9.51t9.51,32.52v140.7q0,23-9.51,32.52t-32.52,9.52h-42q-12.84,0-18.36-6.42t-8.19-19.25v13.72q0,7.08-2.43,9.51t-9.51,2.44H525.23V148.8c0-4.72.8-7.89,2.43-9.51s4.79-2.44,9.51-2.44h23.45v284H615q13.71,0,17.26-5.75t3.54-19.47v-123q0-13.71-3.54-19.46T615,247.46H578.32V233.75q0-7.08,2-9.52c1.33-1.61,4.35-2.43,9.07-2.43Z"/><path d="M874.32,221.8,790.7,523.55q-2.22,7.08-5.09,9.51c-1.93,1.62-5.24,2.44-10,2.44H756.18l23.45-88.93h-11.5L713.71,233.75q-2.65-12,8.85-11.95h19.91l37.61,142.91,8.85,53.54h2.65l11.06-53.09,38.49-131.41q1.77-7.08,4.87-9.52c2.06-1.61,5.46-2.43,10.18-2.43Z"/><path d="M994.66,221.8c4.72,0,7.74.82,9.07,2.43s2,4.8,2,9.52v13.71H951.3V395.68q0,13.72,3.54,19.47t17.26,5.75h38.49q-.89,12.84-5.09,19.25t-17,6.42H957.94q-23,0-32.52-9.52t-9.51-32.52V182.42c0-4.71.8-7.89,2.43-9.51s4.79-2.43,9.51-2.43H951.3V221.8Z"/><path d="M1169,420.9v13.72q0,7.08-2,9.51c-1.33,1.63-4.36,2.44-9.07,2.44h-66.81q-23,0-32.52-9.52t-9.51-32.52V263.83q0-23,9.51-32.52t32.52-9.51h48.67q23,0,32.52,9.51t9.51,32.52v49.56q0,23-9.51,32.52t-32.52,9.51h-26.55q-7.08,0-9.07-2.43t-2-9.51V329.76h25.66q13.71,0,17.26-5.75t3.54-19.47V270.47q0-13.71-4.43-18.36t-18.14-4.65h-19q-14.61,0-18.58,5.09t-4,20.13v123q0,13.72,3.54,19.47t17.26,5.75Z"/><polygon class="cls-1" points="265.24 470.65 198.93 537.89 0 336.17 331.52 0 397.83 67.24 132.62 336.17 265.24 470.65"/><polygon class="cls-2" points="397.83 336.2 265.24 470.65 198.93 403.41 265.24 336.17 198.93 268.93 265.24 201.69 331.55 268.93 331.52 268.96 397.83 336.2"/></g></g></svg>