<svg xmlns="http://www.w3.org/2000/svg" viewBox="0 0 506.77 235.07"><defs><style>.cls-1,.cls-2{fill:#fff;}.cls-2{stroke:#f0a500;stroke-miterlimit:10;stroke-width:4px;}</style></defs><g id="Capa_2" data-name="Capa 2"><g id="Capa_5" data-name="Capa 5"><path class="cls-1" d="M271.12,97.43q9.81,0,13.87,4.06c2.7,2.7,4.05,7.33,4.05,13.86v60q0,9.81-4.05,13.87t-13.87,4.06H253.19c-3.65,0-6.25-.91-7.83-2.74s-2.73-4.56-3.49-8.21v5.85c0,2-.34,3.37-1,4.06s-2.05,1-4.06,1h-10V66.3c0-2,.34-3.36,1-4.06s2-1,4.05-1h10V182.33h23.21c3.9,0,6.35-.81,7.36-2.45s1.51-4.4,1.51-8.3V119.13c0-3.9-.51-6.67-1.51-8.3s-3.46-2.46-7.36-2.46H249.42v-5.85c0-2,.28-3.36.85-4s1.85-1,3.87-1Z"/><path class="cls-1" d="M375.64,97.43,340,226.11a8.78,8.78,0,0,1-2.17,4c-.82.69-2.23,1-4.24,1h-8.3l10-37.92h-4.91l-23.21-90.76q-1.12-5.08,3.78-5.09h8.49l16,60.94,3.77,22.83h1.13l4.72-22.64,16.41-56a7.33,7.33,0,0,1,2.08-4,7.09,7.09,0,0,1,4.34-1Z"/><path class="cls-1" d="M427,97.43c2,0,3.3.35,3.87,1s.85,2,.85,4v5.85H408.47v63.21q0,5.85,1.51,8.3c1,1.64,3.46,2.45,7.36,2.45h16.41q-.37,5.47-2.17,8.21t-7.26,2.74h-13q-9.81,0-13.87-4.06t-4.05-13.87V80.64c0-2,.34-3.37,1-4.06s2-1,4.06-1h10V97.43Z"/><path class="cls-1" d="M501.3,182.33v5.85c0,2-.29,3.37-.85,4.06s-1.86,1-3.87,1H468.09q-9.81,0-13.87-4.06t-4.06-13.87v-60c0-6.53,1.36-11.16,4.06-13.86s7.33-4.06,13.87-4.06h20.75q9.81,0,13.87,4.06c2.7,2.7,4.06,7.33,4.06,13.86v21.14q0,9.81-4.06,13.86t-13.87,4.06H477.52c-2,0-3.3-.35-3.86-1s-.85-2-.85-4.05v-5.85h10.94q5.85,0,7.36-2.46c1-1.63,1.51-4.4,1.51-8.3V118.18q0-5.84-1.89-7.83t-7.74-2h-8.11c-4.15,0-6.79.73-7.92,2.17s-1.7,4.31-1.7,8.59v52.45q0,5.85,1.51,8.3c1,1.64,3.46,2.45,7.36,2.45Z"/><polygon class="cls-2" points="115.91 203.55 87.64 232.22 2.81 146.2 144.18 2.85 172.46 31.52 59.36 146.2 115.91 203.55"/><polygon class="cls-2" points="172.46 146.22 115.91 203.55 87.64 174.88 115.91 146.2 87.64 117.53 115.91 88.86 144.19 117.53 144.18 117.54 172.46 146.22"/></g></g></svg>